# Blender 4.3.2
# www.blender.org
mtllib Frame_low.mtl
g frame_low_Mesh
v 0.905314 0.031442 -11.171060
v 0.905314 -11.031679 -11.171060
v 0.905314 -11.031679 -0.000000
v 0.905314 11.094561 -0.000000
v 0.905314 11.094561 11.171060
v 0.905314 0.031442 11.171060
v 0.905314 -11.031679 11.171060
v 0.905314 11.094561 -11.171060
v -1.143444 0.031442 -12.531205
v -1.143444 -12.378680 -12.531205
v -1.143444 -12.378680 -0.000000
v -1.143444 12.441565 -0.000000
v -1.143444 12.441565 12.531205
v -1.143444 0.031442 12.531205
v -1.143444 -12.378680 12.531205
v -1.143444 12.441565 -12.531205
v 0.926709 0.031442 -0.000000
v 1.431283 0.031442 -11.171060
v 1.431283 -11.031678 -11.171060
v 1.431283 -11.031678 -0.000000
v 1.431283 11.094562 -0.000000
v 1.431283 11.094562 11.171060
v 1.431283 0.031442 11.171060
v 1.431283 -11.031678 11.171060
v 1.431283 11.094562 -11.171060
v 1.604918 0.031442 -12.531205
v 1.604918 -12.378679 -12.531205
v 1.604918 -12.378679 -0.000000
v 1.604918 12.441565 -0.000000
v 1.604918 12.441565 12.531205
v 1.604918 0.031442 12.531205
v 1.604918 -12.378679 12.531205
v 1.604918 12.441565 -12.531205
vn 1.0000 -0.0000 -0.0010
vn 1.0000 -0.0010 -0.0000
vn 1.0000 -0.0000 -0.0000
vn 1.0000 -0.0000 0.0010
vn 1.0000 0.0010 -0.0000
vn -0.0000 0.7105 0.7037
vn -0.0000 1.0000 -0.0000
vn -0.0000 -0.7105 -0.7037
vn -0.0000 -1.0000 -0.0000
vn -0.0000 -0.0000 1.0000
vn -0.0000 0.7105 -0.7037
vn -0.0000 -0.0000 -1.0000
vn -0.0000 -0.7105 0.7037
vn 0.9919 -0.0000 0.1266
vn 0.9959 -0.0642 0.0636
vn 0.9918 -0.1278 -0.0000
vn 0.9959 -0.0642 -0.0636
vn 0.9919 -0.0000 -0.1266
vn 0.9959 0.0642 -0.0636
vn 0.9918 0.1278 -0.0000
vn 0.9959 0.0642 0.0636
vt 0.983625 0.460148
vt 0.537181 0.018017
vt 0.983625 0.018018
vt 0.090736 0.460148
vt 0.090737 0.018018
vt 0.537180 0.902279
vt 0.537181 0.460148
vt 0.001953 0.500000
vt 0.029394 0.374884
vt 0.029394 0.500000
vt 0.001953 0.998047
vt 0.029394 0.872931
vt 0.029394 0.998047
vt 0.001953 0.623907
vt 0.029394 0.623907
vt 0.001953 0.249768
vt 0.029394 0.125860
vt 0.029394 0.249768
vt 0.001953 0.747814
vt 0.029394 0.747814
vt 0.001953 0.872931
vt 0.001953 0.374884
vt 0.066166 0.225025
vt 0.060915 0.113489
vt 0.066166 0.113489
vt 0.066166 0.335483
vt 0.060915 0.225025
vt 0.066166 0.557478
vt 0.060914 0.445942
vt 0.066166 0.445942
vt 0.051795 0.112328
vt 0.037330 0.222704
vt 0.037330 0.112328
vt 0.051795 0.334156
vt 0.051795 0.222704
vt 0.037330 0.445608
vt 0.037330 0.334156
vt 0.051795 0.555983
vt 0.051795 0.445608
vt 0.037330 0.666358
vt 0.037330 0.555983
vt 0.051795 0.777811
vt 0.051795 0.666358
vt 0.037330 0.889263
vt 0.037330 0.777811
vt 0.037330 0.001953
vt 0.051795 0.001953
vt 0.066166 0.669014
vt 0.060914 0.557478
vt 0.066166 0.779472
vt 0.060914 0.669014
vt 0.060915 0.335483
vt 0.066166 0.889930
vt 0.060915 0.779472
vt 0.060915 0.001953
vt 0.066166 0.001953
vt 0.001953 0.125860
vt 0.029394 0.001953
vt 0.983624 0.902278
vt 0.090736 0.902278
vt 0.051795 0.889263
vt 0.060915 0.889930
vt 0.001953 0.001953
s 1
usemtl Cube
f 1/1/1 3/2/2 2/3/3
f 3/2/2 6/4/4 7/5/3
f 1/1/1 4/6/5 17/7/3
f 4/6/5 6/4/4 17/7/3
s 2
f 30/8/6 12/9/7 13/10/6
f 27/11/8 11/12/9 10/13/8
f 31/14/10 13/10/6 14/15/10
f 33/16/11 9/17/12 16/18/11
f 32/19/13 14/15/10 15/20/13
f 28/21/9 15/20/13 11/12/9
f 29/22/7 16/18/11 12/9/7
s 3
f 7/23/11 20/24/7 3/25/7
f 6/26/12 24/27/11 7/23/11
f 4/28/9 22/29/8 5/30/8
s 4
f 26/31/14 25/32/15 18/33/14
f 29/34/16 25/32/15 33/35/15
f 29/34/16 22/36/17 21/37/16
f 31/38/18 22/36/17 30/39/17
f 31/38/18 24/40/19 23/41/18
f 28/42/20 24/40/19 32/43/19
f 28/42/20 19/44/21 20/45/20
f 26/31/14 19/46/21 27/47/21
s 3
f 8/48/13 21/49/9 4/28/9
f 1/50/10 25/51/13 8/48/13
f 5/30/8 23/52/12 6/26/12
f 2/53/6 18/54/10 1/50/10
f 3/25/7 19/55/6 2/56/6
s 2
f 26/57/12 10/58/8 9/17/12
s 1
f 1/1/1 17/7/3 3/2/2
f 3/2/2 17/7/3 6/4/4
f 1/1/1 8/59/3 4/6/5
f 4/6/5 5/60/3 6/4/4
s 2
f 30/8/6 29/22/7 12/9/7
f 27/11/8 28/21/9 11/12/9
f 31/14/10 30/8/6 13/10/6
f 33/16/11 26/57/12 9/17/12
f 32/19/13 31/14/10 14/15/10
f 28/21/9 32/19/13 15/20/13
f 29/22/7 33/16/11 16/18/11
s 3
f 7/23/11 24/27/11 20/24/7
f 6/26/12 23/52/12 24/27/11
f 4/28/9 21/49/9 22/29/8
s 4
f 26/31/14 33/35/15 25/32/15
f 29/34/16 21/37/16 25/32/15
f 29/34/16 30/39/17 22/36/17
f 31/38/18 23/41/18 22/36/17
f 31/38/18 32/43/19 24/40/19
f 28/42/20 20/45/20 24/40/19
f 28/42/20 27/61/21 19/44/21
f 26/31/14 18/33/14 19/46/21
s 3
f 8/48/13 25/51/13 21/49/9
f 1/50/10 18/54/10 25/51/13
f 5/30/8 22/29/8 23/52/12
f 2/53/6 19/62/6 18/54/10
f 3/25/7 20/24/7 19/55/6
s 2
f 26/57/12 27/63/8 10/58/8
